<svg id="Layer_1" data-name="Layer 1" xmlns="http://www.w3.org/2000/svg" viewBox="0 0 293.33 88.45"><defs><style>.cls-1{fill:#890245;}.cls-2{fill:#fff;}.cls-3{fill:#32a004;}.cls-4{fill:#dd9c27;}.cls-5{fill:#404041;}.cls-6{fill:#f3c715;}.cls-7{fill:none;stroke:#404041;stroke-miterlimit:10;stroke-dasharray:2;}</style></defs><title>sanalpospro3d logo 3</title><rect class="cls-1" x="13.91" y="11.2" width="21.56" height="38.98"/><path class="cls-2" d="M27,44.26H32.1V47.2H17.52v-5a4.58,4.58,0,0,1,1.34-3.45,4.84,4.84,0,0,1,3.49-1.29,4.53,4.53,0,0,1,3.38,1.27A4.84,4.84,0,0,1,27,42.3Zm-2.45,0v-2a1.58,1.58,0,0,0-.55-1.3,2.42,2.42,0,0,0-1.6-.46,2.85,2.85,0,0,0-1.74.47A1.51,1.51,0,0,0,20,42.21v2Z"/><path class="cls-2" d="M26.77,31.13v1.46H32.1v2.94H17.52V30.84a4.73,4.73,0,0,1,1.15-3.42,4.26,4.26,0,0,1,3.26-1.21A4.23,4.23,0,0,1,26,28.32l6-2.55h.14v3.16Zm-2.45,1.46V30.92a1.57,1.57,0,0,0-.59-1.33,2.55,2.55,0,0,0-1.56-.44c-1.46,0-2.2.57-2.2,1.72v1.72Z"/><path class="cls-2" d="M26.12,13.93a6.84,6.84,0,0,1,4.56,1.38,4.81,4.81,0,0,1,1.62,3.85A4.87,4.87,0,0,1,30.69,23a6.7,6.7,0,0,1-4.5,1.42H23.7A7.15,7.15,0,0,1,19,23.05a4.73,4.73,0,0,1-1.69-3.87A4.73,4.73,0,0,1,19,15.35a7.06,7.06,0,0,1,4.65-1.42Zm-2.44,2.95a6,6,0,0,0-2.93.56,1.88,1.88,0,0,0-1,1.74,1.9,1.9,0,0,0,.93,1.74,5.83,5.83,0,0,0,2.82.58h2.59a5.43,5.43,0,0,0,2.82-.57,2,2,0,0,0,.9-1.77A1.89,1.89,0,0,0,29,17.45a5.4,5.4,0,0,0-2.75-.57Z"/><path class="cls-3" d="M58.1,40.53a4.89,4.89,0,0,0-1.22-3.6,14.15,14.15,0,0,0-4.44-2.54Q46.56,32.17,44,29.18a10.48,10.48,0,0,1-2.57-7.07,9.87,9.87,0,0,1,3.5-7.92,13.14,13.14,0,0,1,8.88-3,13.28,13.28,0,0,1,6.41,1.51A10.51,10.51,0,0,1,64.54,17a12.82,12.82,0,0,1,1.52,6.27H58.2A6.53,6.53,0,0,0,57,19.09a4.11,4.11,0,0,0-3.37-1.43,4.23,4.23,0,0,0-3.22,1.22,4.58,4.58,0,0,0-1.15,3.29,4,4,0,0,0,1.29,2.9,14.66,14.66,0,0,0,4.56,2.7q5.7,2.07,8.3,5.07A11.31,11.31,0,0,1,66,40.48a10.07,10.07,0,0,1-3.24,8c-2.16,1.92-5.11,2.87-8.82,2.87a15.2,15.2,0,0,1-6.9-1.55,11.69,11.69,0,0,1-4.86-4.45,12.94,12.94,0,0,1-1.76-6.84h7.91q0,3.38,1.32,4.91c.87,1,2.3,1.52,4.29,1.52C56.72,44.9,58.1,43.45,58.1,40.53Z"/><path class="cls-3" d="M84.67,50.78A10.76,10.76,0,0,1,84,48.53a6.51,6.51,0,0,1-5.53,2.78,8.15,8.15,0,0,1-6-2.41,8.48,8.48,0,0,1-2.4-6.25,8.8,8.8,0,0,1,2.9-7c1.94-1.66,4.74-2.51,8.38-2.55h2.31V30.72A4.32,4.32,0,0,0,83,28a2.4,2.4,0,0,0-2-.81q-2.83,0-2.84,3.33H70.59a8.41,8.41,0,0,1,3-6.64,11.23,11.23,0,0,1,7.63-2.61c3.18,0,5.64.82,7.39,2.48s2.61,4,2.61,7.09V44.45a14.33,14.33,0,0,0,1.07,5.87v.46Zm-4.48-5.42a4.25,4.25,0,0,0,2.15-.51,3.59,3.59,0,0,0,1.31-1.21v-6H81.83a3.92,3.92,0,0,0-3,1.23,4.77,4.77,0,0,0-1.11,3.3C77.67,44.29,78.51,45.36,80.19,45.36Z"/><path class="cls-3" d="M103.68,21.76l.22,2.87a8,8,0,0,1,6.73-3.4q7.47,0,7.69,10.48V50.78h-7.61V32.27a6.71,6.71,0,0,0-.74-3.58,2.87,2.87,0,0,0-2.59-1.11,3.56,3.56,0,0,0-3.22,2.12V50.78H96.55v-29Z"/><path class="cls-3" d="M137.55,50.78a10.76,10.76,0,0,1-.64-2.25,6.51,6.51,0,0,1-5.53,2.78,8.15,8.15,0,0,1-6-2.41,8.48,8.48,0,0,1-2.4-6.25,8.77,8.77,0,0,1,2.91-7c1.93-1.66,4.73-2.51,8.38-2.55h2.3V30.72a4.32,4.32,0,0,0-.67-2.76,2.4,2.4,0,0,0-2-.81q-2.84,0-2.84,3.33h-7.59a8.41,8.41,0,0,1,3-6.64,11.23,11.23,0,0,1,7.63-2.61c3.18,0,5.64.82,7.39,2.48s2.61,4,2.61,7.09V44.45a14.33,14.33,0,0,0,1.07,5.87v.46Zm-4.48-5.42a4.25,4.25,0,0,0,2.15-.51,3.51,3.51,0,0,0,1.31-1.21v-6h-1.82a3.92,3.92,0,0,0-3.05,1.23,4.77,4.77,0,0,0-1.11,3.3C130.55,44.29,131.39,45.36,133.07,45.36Z"/><path class="cls-3" d="M157.58,50.78H150V9.59h7.61Z"/><path class="cls-1" d="M171.71,37.05V50.78h-7.88v-39h13.3a12.2,12.2,0,0,1,9.24,3.6,12.89,12.89,0,0,1,3.44,9.33c0,3.82-1.13,6.85-3.4,9.06S181,37.05,177,37.05Zm0-6.57h5.42A4.3,4.3,0,0,0,180.62,29a6.53,6.53,0,0,0,1.23-4.29,7.72,7.72,0,0,0-1.26-4.65,4.06,4.06,0,0,0-3.38-1.76h-5.5Z"/><path class="cls-1" d="M222.56,34.77q0,7.86-3.72,12.2t-10.31,4.34q-6.57,0-10.32-4.3c-2.51-2.87-3.77-6.89-3.81-12V28.28q0-8,3.73-12.56t10.35-4.52a12.74,12.74,0,0,1,10.27,4.44c2.5,2.95,3.77,7.11,3.81,12.45Zm-7.91-6.54c0-3.53-.51-6.15-1.51-7.86a5.54,5.54,0,0,0-9.3-.1c-1,1.66-1.52,4.17-1.56,7.55v7q0,5.11,1.53,7.55a5.17,5.17,0,0,0,4.72,2.42,5.06,5.06,0,0,0,4.59-2.37q1.5-2.37,1.53-7.36Z"/><path class="cls-1" d="M244.71,40.53a4.89,4.89,0,0,0-1.22-3.6,14.15,14.15,0,0,0-4.44-2.54q-5.88-2.22-8.45-5.21A10.48,10.48,0,0,1,228,22.11a9.87,9.87,0,0,1,3.5-7.92,14.55,14.55,0,0,1,15.29-1.48A10.51,10.51,0,0,1,251.15,17a12.82,12.82,0,0,1,1.52,6.27h-7.86a6.53,6.53,0,0,0-1.16-4.17,4.11,4.11,0,0,0-3.37-1.43,4.23,4.23,0,0,0-3.22,1.22,4.58,4.58,0,0,0-1.15,3.29,4,4,0,0,0,1.29,2.9,14.66,14.66,0,0,0,4.56,2.7q5.7,2.07,8.3,5.07a11.31,11.31,0,0,1,2.58,7.64,10.07,10.07,0,0,1-3.24,8c-2.16,1.92-5.11,2.87-8.82,2.87a15.2,15.2,0,0,1-6.9-1.55,11.69,11.69,0,0,1-4.86-4.45,12.94,12.94,0,0,1-1.76-6.84H235q0,3.38,1.32,4.91c.87,1,2.3,1.52,4.29,1.52C243.33,44.9,244.71,43.45,244.71,40.53Z"/><path class="cls-1" d="M261.89,16.77h1.45a1.38,1.38,0,0,0,1.22-.58,2.74,2.74,0,0,0,.39-1.55,2.32,2.32,0,0,0-.4-1.43,1.27,1.27,0,0,0-1.07-.52,1.23,1.23,0,0,0-1,.49,1.86,1.86,0,0,0-.4,1.23h-3a4.24,4.24,0,0,1,.55-2.17,3.89,3.89,0,0,1,1.56-1.5,4.63,4.63,0,0,1,2.23-.54,4.57,4.57,0,0,1,3.34,1.18A4.31,4.31,0,0,1,268,14.6a3.79,3.79,0,0,1-2,3.32,3.28,3.28,0,0,1,1.63,1.4,4.36,4.36,0,0,1,.54,2.21,4.35,4.35,0,0,1-1.31,3.3,4.8,4.8,0,0,1-3.45,1.24,4.41,4.41,0,0,1-3.22-1.22,4.35,4.35,0,0,1-1.23-3.22h3a2.22,2.22,0,0,0,.44,1.39,1.34,1.34,0,0,0,1.1.56,1.5,1.5,0,0,0,1.23-.57,2.44,2.44,0,0,0,.45-1.53c0-1.52-.59-2.29-1.78-2.29h-1.47Z"/><path class="cls-1" d="M270.44,25.86V10.41h4.09a5.61,5.61,0,0,1,4.31,1.72,6.75,6.75,0,0,1,1.64,4.71v2.5a6.79,6.79,0,0,1-1.61,4.79,5.76,5.76,0,0,1-4.43,1.73ZM273.56,13V23.27h.94a2.59,2.59,0,0,0,2.19-.82,4.86,4.86,0,0,0,.67-2.84V16.93a5.51,5.51,0,0,0-.6-3,2.46,2.46,0,0,0-2.06-.9Z"/><path class="cls-3" d="M261.16,31.62a.61.61,0,0,0-.15-.45,1.79,1.79,0,0,0-.56-.32,2.51,2.51,0,0,1-1.06-.66,1.28,1.28,0,0,1-.33-.88,1.25,1.25,0,0,1,.44-1,1.69,1.69,0,0,1,1.12-.38,1.79,1.79,0,0,1,.81.19,1.28,1.28,0,0,1,.54.54,1.6,1.6,0,0,1,.2.79h-1a.79.79,0,0,0-.15-.52.52.52,0,0,0-.42-.18.54.54,0,0,0-.41.15.55.55,0,0,0-.14.41.5.5,0,0,0,.16.37,2,2,0,0,0,.57.34,2.39,2.39,0,0,1,1,.64,1.44,1.44,0,0,1,.32,1,1.24,1.24,0,0,1-.41,1,1.61,1.61,0,0,1-1.11.36,1.9,1.9,0,0,1-.86-.19,1.53,1.53,0,0,1-.62-.56,1.73,1.73,0,0,1-.22-.87h1a.94.94,0,0,0,.16.62.67.67,0,0,0,.54.19C261,32.17,261.16,32,261.16,31.62Z"/><path class="cls-3" d="M265.36,30.79h-1.55v1.3h1.83v.82h-2.82V28h2.82v.83h-1.83V30h1.55Z"/><path class="cls-3" d="M269.54,31.28a1.81,1.81,0,0,1-.47,1.27,1.66,1.66,0,0,1-1.23.43,1.52,1.52,0,0,1-1.27-.55,2.38,2.38,0,0,1-.45-1.56V30a2.36,2.36,0,0,1,.46-1.56,1.57,1.57,0,0,1,1.28-.55,1.59,1.59,0,0,1,1.22.45,2.1,2.1,0,0,1,.47,1.29h-1a1.23,1.23,0,0,0-.16-.72.78.78,0,0,0-1.1.08,1.89,1.89,0,0,0-.17.92v.93a2.1,2.1,0,0,0,.16,1,.59.59,0,0,0,.56.28.68.68,0,0,0,.54-.19,1.23,1.23,0,0,0,.17-.69Z"/><path class="cls-3" d="M273.35,28v3.4a1.55,1.55,0,0,1-.42,1.17,1.6,1.6,0,0,1-1.19.41,1.67,1.67,0,0,1-1.21-.41,1.6,1.6,0,0,1-.42-1.19V28h1v3.38a1,1,0,0,0,.14.6.57.57,0,0,0,.49.18.55.55,0,0,0,.48-.18,1,1,0,0,0,.14-.58V28Z"/><path class="cls-3" d="M275.59,31.12h-.49v1.79h-1V28h1.58a1.59,1.59,0,0,1,1.15.39,1.67,1.67,0,0,1-.3,2.46l.86,2v0h-1.07Zm-.49-.83h.56a.51.51,0,0,0,.45-.2.82.82,0,0,0,.15-.52c0-.5-.19-.74-.58-.74h-.58Z"/><path class="cls-3" d="M280.47,30.79h-1.55v1.3h1.83v.82h-2.82V28h2.82v.83h-1.83V30h1.55Z"/><rect class="cls-3" x="259.48" y="34.53" width="21.28" height="15.78"/><rect class="cls-2" x="266.62" y="41.21" width="7.33" height="7.1"/><path class="cls-2" d="M268.68,37.73a.24.24,0,0,1,.24-.24h2.73a.24.24,0,0,1,.24.24v2.74h1V37.73a1.2,1.2,0,0,0-1.2-1.2h-2.73a1.19,1.19,0,0,0-1.19,1.2v2.74h.95Z"/><path class="cls-3" d="M272,45.4h.41v-.19a1.13,1.13,0,0,0-.2-.71,3.53,3.53,0,0,0-.09-1l0-.14H272a2.23,2.23,0,0,1-.32-.06,2,2,0,0,1-.39-.13l-.26-.1c-.6-.25-.6-.25-.66-.25s-.07,0-.53.2l-.34.15a2.25,2.25,0,0,1-.71.19h-.15l0,.14a3,3,0,0,0,.19,2.07,4,4,0,0,0,.91,1.05c.17.13.31.24.41.3s.22.14.27.14h0c.05,0,.07,0,.27-.14l.4-.3c.08-.07.17-.14.26-.23a1.58,1.58,0,0,0,.32,0,2.36,2.36,0,0,0,.78-.16v-.48h0a1.19,1.19,0,0,1-.7.26h0a.8.8,0,0,1-.41-.12.6.6,0,0,1-.25-.5H272Zm-1.31-.89a1.1,1.1,0,0,0-.29.82,1,1,0,0,0,.3.79l.06.05.09.06a4.89,4.89,0,0,1-.52.39,4,4,0,0,1-1.25-1.25,2.06,2.06,0,0,1-.23-.77,2.84,2.84,0,0,1,0-.88h0a3.74,3.74,0,0,0,.69-.2l.36-.16.37-.16.51.21.26.11a4,4,0,0,0,.45.15l.24.05a2.4,2.4,0,0,1,.06.55l-.26,0h-.09A1.07,1.07,0,0,0,270.73,44.51Zm.74.05a.37.37,0,0,1,.36.19.69.69,0,0,1,.07.34H271C271,44.73,271.17,44.56,271.47,44.56Z"/><path class="cls-4" d="M158.65,66.31l-.45,2h-.07a4.53,4.53,0,0,0-2.92-1.24,2.5,2.5,0,0,0-1.35.32,1,1,0,0,0-.52.83c0,.43.39.76,1.17,1a13.19,13.19,0,0,1,2.28.72,2.12,2.12,0,0,1,.85.73,1.75,1.75,0,0,1,.3,1,2.93,2.93,0,0,1-1.25,2.43,5.24,5.24,0,0,1-3.25.94,7.88,7.88,0,0,1-3.81-.88l.48-2.12h.09a4.71,4.71,0,0,0,3.37,1.46,2.48,2.48,0,0,0,1.3-.3.92.92,0,0,0,.5-.82c0-.41-.37-.71-1.11-.92q-.85-.21-1.68-.48a2.83,2.83,0,0,1-1.3-.8,2,2,0,0,1-.47-1.34A2.89,2.89,0,0,1,152,66.47a5.08,5.08,0,0,1,3.17-.94A7.43,7.43,0,0,1,158.65,66.31Z"/><path class="cls-4" d="M163.23,75.09a4.38,4.38,0,0,1-3-1,3.45,3.45,0,0,1-1.08-2.72,6.11,6.11,0,0,1,1.48-4.23,4.9,4.9,0,0,1,3.84-1.67,4.42,4.42,0,0,1,3,1,3.48,3.48,0,0,1,1.07,2.73,6.19,6.19,0,0,1-1.47,4.23A4.87,4.87,0,0,1,163.23,75.09Zm1.1-8a2.23,2.23,0,0,0-2,1.27,6.12,6.12,0,0,0-.75,3.15c0,1.28.57,1.92,1.7,1.92a2.22,2.22,0,0,0,2-1.27,6.14,6.14,0,0,0,.73-3.13C166,67.77,165.45,67.13,164.33,67.13Z"/><path class="cls-4" d="M177.45,62.53l-.38,1.64H177a4.31,4.31,0,0,0-1.22-.2,2,2,0,0,0-1.26.33,2.15,2.15,0,0,0-.61,1.18l-.07.3h2.26l-.38,1.55h-2.15l-1.68,7.48h-2.44l1.68-7.48h-1.25l.37-1.55h1.24l.1-.4a3.61,3.61,0,0,1,3.95-3A12.19,12.19,0,0,1,177.45,62.53Z"/><path class="cls-4" d="M183.6,65.78l-.37,1.55H180.5l-.88,3.8a5.89,5.89,0,0,0-.18,1.25c0,.7.42,1.05,1.24,1.05a3,3,0,0,0,1.17-.27h.07l-.39,1.6a9.47,9.47,0,0,1-2.05.23c-1.73,0-2.6-.64-2.6-1.93a5.36,5.36,0,0,1,.15-1.18l1-4.55h-1.21l.38-1.55h1.2l.6-2.56h2.41l-.59,2.56Z"/><path class="cls-5" d="M135.69,74.76a9.18,9.18,0,0,1-2.07.23,3.47,3.47,0,0,1-2.38-.69,3,3,0,0,1-.75-2.25V67.31H129.3V65.72h1.2V63.17h2.4v2.55h2.79v1.59H132.9v3.75a3.16,3.16,0,0,0,.37,1.88,1.51,1.51,0,0,0,1.24.44,2.52,2.52,0,0,0,1.11-.27h.07Z"/><polygon class="cls-5" points="137.17 69.01 137.17 74.81 139.58 74.81 139.58 67.46 137.17 69.01"/><path class="cls-5" d="M148.77,74.36a6.81,6.81,0,0,1-2.76.69,5.28,5.28,0,0,1-3.72-1.23A4.53,4.53,0,0,1,141,70.31a4.64,4.64,0,0,1,1.35-3.57,5,5,0,0,1,3.61-1.27,6.19,6.19,0,0,1,2.85.7v2.21h-.13A4,4,0,0,0,146,67.19a2.28,2.28,0,0,0-1.87.82,3.6,3.6,0,0,0-.66,2.3,3.33,3.33,0,0,0,.67,2.24,2.34,2.34,0,0,0,1.9.79,3.81,3.81,0,0,0,2.59-1.2h.13Z"/><rect class="cls-4" x="137.17" y="65.72" width="2.41" height="1.71"/><path class="cls-4" d="M125.74,63.18c-.28,0-.65-.12-1.09-.23a14.5,14.5,0,0,1-2-.65l-1.15-.48c-.69-.29-1.78-.74-2.25-.92-.37.15-1.12.48-1.66.72s-1.21.54-1.57.68a13,13,0,0,1-3,.87v0l11.84,2.23a5.44,5.44,0,0,1,1.14.18A14.19,14.19,0,0,0,125.74,63.18Z"/><path class="cls-4" d="M112.83,67.12a8.93,8.93,0,0,0,1,3.41A17.67,17.67,0,0,0,119.37,76a22.42,22.42,0,0,0,2.3-1.72l-.39-.26,0,0Z"/><path class="cls-6" d="M112.83,67.12l8.4,6.92,0,0a2.88,2.88,0,0,1-.27-.22,4.48,4.48,0,0,1-1.35-3.51,4.9,4.9,0,0,1,1.28-3.58,4.62,4.62,0,0,1,3.51-1.31h.39L113,63.22A13.94,13.94,0,0,0,112.83,67.12Z"/><path class="cls-5" d="M126.75,70.64h1.79V69.8a4.77,4.77,0,0,0-.88-3.1,14.9,14.9,0,0,0-.41-4.52l-.16-.6-.63,0a7.48,7.48,0,0,1-1.39-.24,12.68,12.68,0,0,1-1.74-.58c-.27-.1-.68-.28-1.13-.47-2.64-1.1-2.67-1.1-2.91-1.1s-.34,0-2.34.91c-.59.26-1.2.53-1.53.66a10.18,10.18,0,0,1-3.13.82l-.63,0-.17.61c0,.2-1.35,5.1.85,9.16a16.75,16.75,0,0,0,4,4.61c.72.59,1.36,1,1.77,1.33.9.6,1,.61,1.21.61h0c.21,0,.32,0,1.18-.61.42-.28,1.06-.74,1.78-1.33.35-.29.74-.63,1.14-1a8.87,8.87,0,0,0,1.41.11,9.75,9.75,0,0,0,3.47-.7V72.26h-.09a5.3,5.3,0,0,1-3.09,1.11H125a3.43,3.43,0,0,1-1.81-.5,2.68,2.68,0,0,1-1.09-2.23h4.65Zm-5.81-3.89a4.9,4.9,0,0,0-1.28,3.58A4.48,4.48,0,0,0,121,73.84a2.88,2.88,0,0,0,.27.22l.39.26a22.42,22.42,0,0,1-2.3,1.72,17.67,17.67,0,0,1-5.54-5.51,8.93,8.93,0,0,1-1-3.41,13.94,13.94,0,0,1,.17-3.9v0a13,13,0,0,0,3-.87c.36-.14,1-.4,1.57-.68s1.29-.57,1.66-.72c.47.18,1.56.63,2.25.92l1.15.48a14.5,14.5,0,0,0,2,.65c.44.11.81.18,1.09.23a14.19,14.19,0,0,1,.24,2.45,5.44,5.44,0,0,0-1.14-.18h-.39A4.62,4.62,0,0,0,120.94,66.75Zm3.29.18a1.66,1.66,0,0,1,1.6.87,3.29,3.29,0,0,1,.3,1.48h-4C122.19,67.71,122.9,66.93,124.23,66.93Z"/><path class="cls-5" d="M136.19,63l-.2,1.36h-.92l.6-4h1.51a1.45,1.45,0,0,1,1,.36,1.05,1.05,0,0,1,.29.94,1.41,1.41,0,0,1-.56,1,1.83,1.83,0,0,1-1.17.35Zm.11-.71h.6a.67.67,0,0,0,.7-.58.57.57,0,0,0-.1-.44.5.5,0,0,0-.43-.16h-.59Z"/><path class="cls-5" d="M142.16,62.73a2,2,0,0,1-.65,1.22,1.91,1.91,0,0,1-1.28.45,1.39,1.39,0,0,1-1.44-1.67l.11-.72a1.91,1.91,0,0,1,1.94-1.68,1.4,1.4,0,0,1,1.12.48,1.45,1.45,0,0,1,.3,1.2Zm-.81-.72a1.06,1.06,0,0,0-.1-.71.56.56,0,0,0-.52-.26.77.77,0,0,0-.6.27,1.29,1.29,0,0,0-.31.7l-.11.72a1.09,1.09,0,0,0,.09.7.58.58,0,0,0,.54.27.74.74,0,0,0,.59-.28,1.29,1.29,0,0,0,.31-.69Z"/><path class="cls-5" d="M145.86,63h0l.86-2.57h.93l-1.5,4h-.86L145,61.9h0l-1,2.45h-.86l-.32-4h.93l.1,2.57h0l1.06-2.57h.69Z"/><path class="cls-5" d="M150,62.65h-1.4l-.15,1h1.68l-.11.71h-2.59l.59-4h2.59l-.1.71h-1.68l-.12.85h1.39Z"/><path class="cls-5" d="M151.68,62.83l-.23,1.52h-.91l.59-4h1.38a1.55,1.55,0,0,1,1,.32.9.9,0,0,1,.28.87,1.11,1.11,0,0,1-.24.54,1.44,1.44,0,0,1-.54.35.73.73,0,0,1,.47.35.94.94,0,0,1,.08.59l0,.25a1.36,1.36,0,0,0,0,.35.4.4,0,0,0,.11.28v.06h-.94a.38.38,0,0,1-.1-.3,2.6,2.6,0,0,1,0-.4l0-.24a.49.49,0,0,0-.08-.43.51.51,0,0,0-.42-.15Zm.11-.71h.46a.74.74,0,0,0,.44-.12.6.6,0,0,0,.21-.36.48.48,0,0,0-.1-.4.52.52,0,0,0-.4-.14h-.46Z"/><path class="cls-5" d="M156.65,62.65h-1.39l-.15,1h1.67l-.11.71h-2.59l.6-4h2.59l-.11.71h-1.67l-.13.85h1.4Z"/><path class="cls-5" d="M159.23,60.39a1.39,1.39,0,0,1,1.09.46,1.37,1.37,0,0,1,.31,1.16l-.11.72a1.85,1.85,0,0,1-.64,1.18,1.92,1.92,0,0,1-1.24.44h-1.45l.59-4Zm-.63.71-.39,2.54h.53a.75.75,0,0,0,.55-.26,1.14,1.14,0,0,0,.31-.65l.11-.72a1,1,0,0,0-.11-.67.55.55,0,0,0-.48-.24Z"/><path class="cls-5" d="M162.21,64.35l.59-4h1.3a1.79,1.79,0,0,1,1.09.28.77.77,0,0,1,.31.81,1.15,1.15,0,0,1-.21.51.9.9,0,0,1-.45.32.66.66,0,0,1,.47.32.83.83,0,0,1,.09.55,1.25,1.25,0,0,1-.52.88,2.05,2.05,0,0,1-1.16.29Zm1.17-1.7-.14,1h.59a.79.79,0,0,0,.45-.12.59.59,0,0,0,.13-.74.53.53,0,0,0-.4-.13h-.63Zm.1-.61h.36a.9.9,0,0,0,.5-.12.43.43,0,0,0,.22-.34.35.35,0,0,0-.1-.37.79.79,0,0,0-.47-.11h-.37Z"/><path class="cls-5" d="M167.39,62.12h0l1.05-1.73h1L167.72,63l-.2,1.39h-.92l.22-1.44-.95-2.52h1Z"/><polyline class="cls-7" points="24.23 51.87 24.23 66.81 104.86 66.81"/><circle class="cls-5" cx="103.09" cy="66.57" r="2.23"/><polyline class="cls-7" points="270.44 51.87 270.44 66.81 189.8 66.81"/><circle class="cls-5" cx="191.57" cy="66.57" r="2.23"/></svg>